PathFileType	4	(x/y/z)	S06_M20_T24
DataRate	CameraRate	NumFrames	NumMarkers	Units	OrigDataRate	OrigDataStartFrame	OrigNumFrames
240	240	9	51	mm	240	121	481
Frame#	Time	Sternum			R.Acromium			L.Acromium			Top.Head			R.ASIS			L.ASIS			R.PSIS			L.PSIS			R.Great.Tro			L.Great.Tro			R.Iliac.Crest			L.Iliac.Crest			V.Sacral			R.Thigh.Upper.Post			R.Thigh.Lower.Ant			R.Thigh.Lower.Post			R.Thigh.Upper.Ant			R.Knee.Lat			R.Knee.Med			R.Shank.Upper.Post			R.Shank.Lower.Ant			R.Shank.Lower.Post			R.Shank.Upper.Ant			R.Ankle.Lat			R.Ankle.Med			R.Heel.Upper			R.Heel.Med			R.Heel.Lat			R.Toe.Lat			R.Toe.Med			R.Toe.Tip			L.Thigh.Upper.Post			L.Thigh.Lower.Ant			L.Thigh.Lower.Post			L.Thigh.Upper.Ant			L.Knee.Lat			L.Knee.Med			L.Shank.Upper.Post			L.Shank.Lower.Ant			L.Shank.Lower.Post			L.Shank.Upper.Ant			L.Ankle.Lat			L.Ankle.Med			L.Heel.Upper			L.Heel.Med			L.Heel.Lat			L.Toe.Lat			L.Toe.Med			L.Toe.Tip			Cervical.Spine			Back			
		X1	Y1	Z1	X2	Y2	Z2	X3	Y3	Z3	X4	Y4	Z4	X5	Y5	Z5	X6	Y6	Z6	X7	Y7	Z7	X8	Y8	Z8	X9	Y9	Z9	X10	Y10	Z10	X11	Y11	Z11	X12	Y12	Z12	X13	Y13	Z13	X14	Y14	Z14	X15	Y15	Z15	X16	Y16	Z16	X17	Y17	Z17	X18	Y18	Z18	X19	Y19	Z19	X20	Y20	Z20	X21	Y21	Z21	X22	Y22	Z22	X23	Y23	Z23	X24	Y24	Z24	X25	Y25	Z25	X26	Y26	Z26	X27	Y27	Z27	X28	Y28	Z28	X29	Y29	Z29	X30	Y30	Z30	X31	Y31	Z31	X32	Y32	Z32	X33	Y33	Z33	X34	Y34	Z34	X35	Y35	Z35	X36	Y36	Z36	X37	Y37	Z37	X38	Y38	Z38	X39	Y39	Z39	X40	Y40	Z40	X41	Y41	Z41	X42	Y42	Z42	X43	Y43	Z43	X44	Y44	Z44	X45	Y45	Z45	X46	Y46	Z46	X47	Y47	Z47	X48	Y48	Z48	X49	Y49	Z49	X50	Y50	Z50	X51	Y51	Z51	

121	0.5	-923.66	1287.4	280.64	-1058.5	1492.3	445.42	-1060.7	1493.1	95.577	-1001.1	1809.1	271.45	-964.02	1052.8	400.24	-952.42	1051.4	146.66	-1160	1066.9	303.36	-1164	1074.5	223.32	-1014.2	976.03	449.19	-1060.5	980.11	91.158	-1054.9	1120.9	431.44	-1029.9	1123.7	110.55	-1177.8	1036.7	265.49	-916.54	747.87	450.93	-835.27	696.2	417.82	-894.52	663.11	434.76	-858.12	784.21	428.15	-833.65	570.91	426.66	-824.66	571.45	297.65	-872.94	346.65	431.52	-810.36	283.01	418.77	-875.64	269.3	420.12	-809.93	359.05	427.94	-841.46	136.25	402.23	-818.91	143.46	320.61	-896.54	86.224	348.75	-879.5	57.063	320.29	-888.8	55.589	384.17	-718.68	64.048	445.46	-679.98	77.199	330.1	-623.66	98.175	383.09	-1056.7	721.93	126.07	-1025.6	634.27	185.99	-1093.5	640.84	146.36	-993.25	720.95	161.42	-1135.9	548.7	164.52	-1109.7	554.57	285.24	-1218.4	327.22	189.03	-1160.2	259.05	191.01	-1231.8	257.64	209.93	-1150.9	327.38	175.77	-1202.1	112.79	217.99	-1186.2	135.64	304.2	-1281.8	78.728	263.28	-1279.1	50.63	294.12	-1276.3	54.881	232.54	-1097.6	45.505	196.38	-1078.6	41.294	316.09	-1004.2	49.378	261.63	-1107.8	1545.4	270.58	-1171	1272.9	267.39
122	0.50417	-918.56	1286.6	280.8	-1053.4	1491.7	445.56	-1055.5	1492.4	95.714	-995.87	1808.4	271.68	-959.08	1052	400.26	-947.69	1050.6	146.62	-1155.3	1066.4	303.49	-1158.9	1074	223.44	-1009.4	975.14	449.2	-1055.9	979.61	91.158	-1049.9	1120.2	431.51	-1025.1	1123.1	110.59	-1172.7	1036.2	265.59	-912.37	746.77	450.8	-831.12	695.04	417.49	-890.43	661.98	434.28	-853.86	783.04	428.01	-829.15	569.98	426.03	-820.02	570.72	297.03	-863.85	344.96	430.52	-799.83	282.7	417.93	-864.82	267.6	419.03	-801.14	358.73	427.2	-827.48	135.23	401.09	-804.7	143.11	319.62	-881.24	84.067	347.49	-863.48	55.382	318.95	-872.84	53.485	382.8	-702.95	65.584	444.23	-664.55	80.118	329.12	-608.77	102.21	382.23	-1053.6	721.6	125.96	-1022.9	633.72	185.76	-1090.8	640.67	146.3	-990.12	720.33	161.18	-1133.6	548.71	164.5	-1107.2	554.44	285.16	-1217.3	327.61	189.12	-1159.3	259.17	190.97	-1230.9	258.07	210.01	-1149.8	327.47	175.75	-1201.8	113.02	218.02	-1185.7	135.88	304.2	-1281.7	78.882	263.39	-1279	50.791	294.24	-1276.2	55.031	232.65	-1097.6	45.484	196.4	-1078.5	41.301	316.07	-1004.1	49.191	261.63	-1102.7	1544.8	270.69	-1165.8	1272.3	267.46
123	0.50833	-913.44	1285.9	280.95	-1048.3	1491	445.71	-1050.3	1491.8	95.857	-990.65	1807.8	271.91	-954.11	1051.1	400.27	-943	1049.8	146.59	-1150.7	1065.9	303.63	-1153.7	1073.4	223.58	-1004.6	974.24	449.21	-1051.2	979.12	91.166	-1044.8	1119.5	431.58	-1020.3	1122.4	110.64	-1167.7	1035.6	265.71	-908.25	745.63	450.67	-827.01	693.83	417.18	-886.4	660.81	433.8	-849.63	781.81	427.89	-824.76	568.99	425.4	-815.46	569.94	296.4	-854.9	343.32	429.47	-789.46	282.46	417.07	-854.13	265.98	417.89	-792.5	358.43	426.45	-813.63	134.34	399.92	-790.67	142.93	318.61	-866.05	82.093	346.17	-847.59	53.914	317.56	-857	51.565	381.37	-687.42	67.252	442.95	-649.35	83.234	328.11	-594.13	106.41	381.35	-1050.5	721.29	125.86	-1020.1	633.18	185.52	-1088	640.5	146.24	-986.94	719.72	160.93	-1131.3	548.73	164.48	-1104.7	554.31	285.08	-1216.1	328.01	189.21	-1158.4	259.29	190.94	-1230	258.51	210.09	-1148.7	327.56	175.73	-1201.4	113.28	218.05	-1185.2	136.13	304.2	-1281.7	79.064	263.5	-1278.9	50.981	294.36	-1276.2	55.209	232.76	-1097.6	45.464	196.41	-1078.4	41.314	316.04	-1004.1	49.005	261.63	-1097.5	1544.2	270.81	-1160.6	1271.7	267.54
124	0.5125	-908.31	1285.1	281.09	-1043.2	1490.3	445.87	-1045	1491.2	96.009	-985.4	1807.1	272.14	-949.13	1050.2	400.25	-938.33	1049	146.57	-1146.3	1065.3	303.78	-1148.5	1072.8	223.74	-999.74	973.32	449.22	-1046.6	978.63	91.18	-1039.8	1118.7	431.65	-1015.5	1121.8	110.68	-1162.6	1035	265.85	-904.16	744.46	450.56	-822.96	692.55	416.89	-882.44	659.6	433.33	-845.42	780.52	427.79	-820.48	567.95	424.77	-810.98	569.1	295.77	-846.07	341.72	428.38	-779.26	282.27	416.21	-843.57	264.44	416.7	-784.01	358.16	425.69	-799.94	133.6	398.72	-776.81	142.91	317.57	-850.98	80.305	344.82	-831.83	52.658	316.11	-841.27	49.828	379.89	-672.1	69.048	441.64	-634.39	86.537	327.08	-579.76	110.76	380.46	-1047.4	720.98	125.76	-1017.2	632.64	185.26	-1085.2	640.34	146.18	-983.71	719.1	160.66	-1129	548.75	164.48	-1102.1	554.17	285.01	-1214.8	328.42	189.32	-1157.5	259.42	190.92	-1229.1	258.98	210.18	-1147.5	327.66	175.71	-1201.1	113.55	218.09	-1184.8	136.4	304.21	-1281.5	79.279	263.6	-1278.8	51.206	294.48	-1276.1	55.418	232.88	-1097.5	45.444	196.43	-1078.3	41.332	316.01	-1004	48.82	261.63	-1092.3	1543.6	270.93	-1155.4	1271.1	267.63
125	0.51667	-903.16	1284.3	281.23	-1038	1489.6	446.03	-1039.7	1490.5	96.169	-980.14	1806.5	272.38	-944.11	1049.3	400.22	-933.66	1048.2	146.55	-1142	1064.8	303.93	-1143.2	1072.2	223.92	-994.85	972.4	449.24	-1041.9	978.14	91.202	-1034.6	1117.9	431.73	-1010.7	1121.2	110.73	-1157.4	1034.4	266.01	-900.11	743.24	450.44	-818.96	691.22	416.61	-878.54	658.36	432.86	-841.23	779.19	427.7	-816.31	566.85	424.12	-806.57	568.23	295.12	-837.38	340.16	427.27	-769.23	282.14	415.33	-833.16	262.98	415.47	-775.69	357.91	424.93	-786.4	133	397.5	-763.15	143.07	316.51	-836.05	78.703	343.42	-816.22	51.615	314.61	-825.69	48.276	378.35	-657	70.966	440.28	-619.68	90.016	326.04	-565.65	115.25	379.57	-1044.2	720.67	125.66	-1014.3	632.12	184.99	-1082.3	640.19	146.12	-980.42	718.5	160.38	-1126.5	548.78	164.48	-1099.3	554.03	284.93	-1213.4	328.86	189.43	-1156.5	259.56	190.92	-1228.1	259.46	210.27	-1146.3	327.77	175.7	-1200.8	113.86	218.13	-1184.3	136.68	304.21	-1281.4	79.53	263.71	-1278.7	51.47	294.6	-1276	55.662	232.99	-1097.5	45.425	196.44	-1078.2	41.357	315.98	-1004	48.636	261.63	-1087.1	1543	271.07	-1150.1	1270.4	267.74
126	0.52083	-898	1283.5	281.36	-1032.8	1488.9	446.21	-1034.4	1489.9	96.337	-974.87	1805.8	272.62	-939.08	1048.5	400.18	-928.99	1047.5	146.53	-1137.9	1064.4	304.08	-1138	1071.6	224.12	-989.93	971.48	449.27	-1037.3	977.66	91.231	-1029.5	1117.2	431.81	-1005.9	1120.5	110.79	-1152.3	1033.8	266.19	-896.09	742	450.32	-815	689.84	416.34	-874.69	657.09	432.38	-837.05	777.81	427.63	-812.24	565.7	423.46	-802.24	567.31	294.45	-828.82	338.65	426.12	-759.37	282.06	414.43	-822.9	261.6	414.2	-767.51	357.68	424.16	-773.04	132.53	396.25	-749.68	143.38	315.43	-821.27	77.287	341.98	-800.78	50.781	313.07	-810.27	46.909	376.76	-642.15	73.003	438.92	-605.24	93.658	325	-551.84	119.86	378.7	-1040.9	720.37	125.57	-1011.3	631.61	184.72	-1079.4	640.04	146.07	-977.09	717.89	160.09	-1124	548.81	164.5	-1096.5	553.88	284.86	-1212.1	329.32	189.55	-1155.6	259.69	190.93	-1227.1	259.96	210.38	-1145.1	327.88	175.7	-1200.5	114.19	218.16	-1183.8	136.98	304.21	-1281.3	79.822	263.81	-1278.6	51.777	294.72	-1276	55.944	233.11	-1097.4	45.407	196.46	-1078.1	41.388	315.94	-1003.9	48.454	261.62	-1081.9	1542.4	271.22	-1144.7	1269.8	267.86
127	0.525	-892.82	1282.8	281.49	-1027.6	1488.2	446.39	-1029.1	1489.3	96.513	-969.57	1805.1	272.87	-934.02	1047.6	400.13	-924.31	1046.7	146.5	-1134	1063.9	304.23	-1132.7	1071	224.34	-984.98	970.56	449.3	-1032.6	977.18	91.268	-1024.2	1116.4	431.9	-1001.1	1119.9	110.85	-1147.1	1033.2	266.39	-892.09	740.73	450.19	-811.07	688.41	416.07	-870.88	655.78	431.9	-832.89	776.39	427.56	-808.27	564.51	422.78	-797.98	566.37	293.76	-820.4	337.18	424.94	-749.69	282.04	413.53	-812.78	260.3	412.89	-759.49	357.48	423.38	-759.88	132.2	394.99	-736.42	143.85	314.33	-806.66	76.055	340.5	-785.52	50.152	311.48	-795.02	45.724	375.13	-627.55	75.157	437.54	-591.07	97.446	323.96	-538.31	124.59	377.86	-1037.6	720.08	125.48	-1008.2	631.1	184.43	-1076.4	639.89	146.03	-973.7	717.29	159.79	-1121.4	548.84	164.52	-1093.6	553.72	284.79	-1210.6	329.79	189.68	-1154.6	259.84	190.95	-1226.1	260.49	210.49	-1143.8	328	175.7	-1200.2	114.54	218.2	-1183.2	137.29	304.21	-1281.1	80.159	263.9	-1278.5	52.131	294.83	-1275.9	56.269	233.21	-1097.4	45.389	196.47	-1078	41.426	315.91	-1003.8	48.274	261.6	-1076.7	1541.9	271.38	-1139.4	1269.1	267.99
128	0.52917	-887.63	1282	281.6	-1022.3	1487.5	446.58	-1023.8	1488.6	96.697	-964.26	1804.5	273.12	-928.94	1046.7	400.07	-919.62	1045.9	146.47	-1130.4	1063.5	304.38	-1127.5	1070.4	224.57	-980	969.64	449.34	-1028	976.7	91.312	-1018.9	1115.7	431.99	-996.27	1119.3	110.92	-1141.9	1032.6	266.61	-888.11	739.43	450.05	-807.16	686.95	415.81	-867.11	654.46	431.41	-828.73	774.93	427.5	-804.38	563.28	422.09	-793.79	565.4	293.06	-812.11	335.76	423.74	-740.18	282.07	412.61	-802.82	259.08	411.55	-751.62	357.31	422.59	-746.91	132	393.7	-723.38	144.46	313.22	-792.23	75.002	338.98	-770.47	49.722	309.86	-779.96	44.719	373.45	-613.23	77.423	436.17	-577.19	101.36	322.94	-525.1	129.4	377.05	-1034.3	719.79	125.39	-1005.1	630.61	184.14	-1073.4	639.75	145.99	-970.27	716.69	159.48	-1118.8	548.89	164.55	-1090.6	553.56	284.73	-1209.2	330.29	189.81	-1153.6	259.99	190.98	-1225	261.03	210.61	-1142.4	328.14	175.71	-1199.9	114.92	218.23	-1182.7	137.62	304.21	-1281	80.544	263.99	-1278.4	52.536	294.94	-1275.8	56.638	233.32	-1097.4	45.372	196.48	-1077.9	41.471	315.87	-1003.7	48.095	261.58	-1071.4	1541.3	271.55	-1134	1268.5	268.14
129	0.53333	-882.42	1281.2	281.72	-1017	1486.8	446.78	-1018.5	1488	96.888	-958.94	1803.8	273.38	-923.83	1045.9	400.01	-914.9	1045.1	146.43	-1127.1	1063.1	304.51	-1122.3	1069.8	224.83	-974.98	968.74	449.39	-1023.3	976.22	91.365	-1013.6	1114.9	432.09	-991.43	1118.6	110.99	-1136.7	1032	266.85	-884.15	738.11	449.89	-803.29	685.46	415.55	-863.38	653.13	430.9	-824.57	773.44	427.44	-800.57	562.02	421.37	-789.66	564.42	292.32	-803.95	334.4	422.53	-730.85	282.15	411.68	-793.02	257.94	410.19	-743.9	357.16	421.78	-734.15	131.92	392.41	-710.57	145.2	312.09	-778.02	74.122	337.43	-755.64	49.482	308.2	-765.13	43.89	371.75	-599.21	79.799	434.83	-563.62	105.38	321.95	-512.2	134.29	376.29	-1030.9	719.51	125.31	-1001.9	630.12	183.84	-1070.3	639.62	145.96	-966.78	716.1	159.17	-1116.1	548.94	164.6	-1087.6	553.4	284.67	-1207.6	330.8	189.95	-1152.5	260.16	191.01	-1223.9	261.6	210.73	-1141	328.28	175.72	-1199.6	115.32	218.26	-1182.1	137.98	304.21	-1280.8	80.982	264.06	-1278.2	52.995	295.04	-1275.7	57.055	233.41	-1097.3	45.356	196.49	-1077.8	41.524	315.83	-1003.6	47.917	261.56	-1066.2	1540.7	271.74	-1128.5	1267.8	268.3
